<svg width="45" height="46" viewBox="0 0 45 46" fill="none" xmlns="http://www.w3.org/2000/svg">
<path d="M0 5.70312C0 2.9417 2.23858 0.703125 5 0.703125H40C42.7614 0.703125 45 2.9417 45 5.70312V40.7031C45 43.4646 42.7614 45.7031 40 45.7031H5C2.23858 45.7031 0 43.4646 0 40.7031V5.70312Z" fill="url(#paint0_linear_203_8432)"/>
<g clip-path="url(#clip0_203_8432)">
<path d="M20.9961 32.9903C20.8458 32.9903 20.699 32.943 20.5755 32.8545C20.4521 32.7661 20.3578 32.6408 20.3052 32.4955L19.7839 31.0529C18.6768 31.0677 17.5734 30.9196 16.5068 30.6131C15.8004 30.2682 15.5184 29.0616 15.6667 27.0252C14.3246 26.5393 14.2307 26.0095 14.1929 25.7945C14.1551 25.5796 14.0824 25.1637 15.6463 21.5718C15.5048 20.5201 15.6129 19.4487 15.9613 18.4495C16.3096 17.4503 16.8878 16.5534 17.6463 15.8356C18.5031 14.959 19.5387 14.2906 20.6775 13.8792C21.8164 13.4678 23.0299 13.3237 24.2296 13.4573C25.4073 13.5943 26.535 14.0246 27.5158 14.7111C28.4965 15.3976 29.3008 16.3197 29.8593 17.3981C31.3128 20.5512 31.1403 23.0884 29.2634 25.8146L30.2731 29.8133C30.2975 29.91 30.3033 30.0106 30.29 30.1095C30.2767 30.2084 30.2447 30.3037 30.1958 30.3898C30.1468 30.476 30.0819 30.5513 30.0047 30.6116C29.9276 30.6718 29.8396 30.7158 29.746 30.741C29.6523 30.7662 29.5548 30.7722 29.4589 30.7585C29.363 30.7448 29.2707 30.7117 29.1872 30.6612C29.1037 30.6107 29.0307 30.5438 28.9722 30.4642C28.9138 30.3845 28.8712 30.2938 28.8467 30.1972L27.6588 25.4986L27.8739 25.2047C29.6181 22.8175 29.8022 20.8141 28.5289 18.0579C27.2693 15.3268 24.1046 14.9789 24.0716 14.9749L24.0319 14.9699C23.0611 14.8746 22.0818 14.9979 21.1617 15.3312C20.2415 15.6645 19.4025 16.1998 18.7025 16.9003C16.5368 19.1996 17.0988 21.3529 17.124 21.4439L17.1977 21.7118L17.0882 21.9717C16.5339 23.2344 15.9254 24.7449 15.7161 25.4007C16.0154 25.5436 16.3259 25.66 16.6444 25.7486L17.2529 25.9185L17.1851 26.5653C17.0618 27.467 17.0782 28.3831 17.2335 29.2795C18.2478 29.464 19.2762 29.5533 20.3062 29.5464L20.811 29.5534L21.6831 31.9677C21.7247 32.0826 21.7387 32.2062 21.724 32.328C21.7092 32.4497 21.6661 32.5659 21.5983 32.6667C21.5305 32.7675 21.44 32.8499 21.3346 32.9068C21.2293 32.9636 21.1121 32.9934 20.9932 32.9934L20.9961 32.9903Z" fill="white"/>
<path d="M22.6608 24.7568V27.6559C22.6545 27.8195 22.5871 27.9743 22.4727 28.0877C22.3582 28.2012 22.2057 28.2646 22.047 28.2646C21.8882 28.2646 21.7357 28.2012 21.6213 28.0877C21.5069 27.9743 21.4394 27.8195 21.4331 27.6559V25.4856L18.8837 23.971V22.6265C18.6691 22.4888 18.5038 22.2828 18.4128 22.0395C18.3218 21.7963 18.3101 21.529 18.3795 21.2783C18.4489 21.0276 18.5955 20.807 18.7973 20.65C18.999 20.4929 19.2449 20.408 19.4976 20.408C19.7503 20.408 19.9961 20.4929 20.1979 20.65C20.3996 20.807 20.5463 21.0276 20.6157 21.2783C20.6851 21.529 20.6734 21.7963 20.5824 22.0395C20.4914 22.2828 20.3261 22.4888 20.1114 22.6265V23.2373L22.6608 24.7568Z" fill="white"/>
<path d="M24.3498 18.6278C24.3502 18.8335 24.2994 19.0359 24.2022 19.2155C24.1049 19.3951 23.9645 19.5459 23.7945 19.6534V23.4423C23.7978 23.5276 23.7844 23.6127 23.755 23.6924C23.7256 23.7722 23.681 23.8451 23.6236 23.9066C23.5663 23.9682 23.4975 24.0171 23.4214 24.0506C23.3453 24.084 23.2634 24.1013 23.1807 24.1013C23.098 24.1013 23.0161 24.084 22.94 24.0506C22.8639 24.0171 22.7951 23.9682 22.7377 23.9066C22.6804 23.8451 22.6357 23.7722 22.6064 23.6924C22.577 23.6127 22.5635 23.5276 22.5668 23.4423V19.6494C22.3961 19.5384 22.2563 19.3834 22.1613 19.1997C22.0662 19.016 22.0191 18.81 22.0247 18.6019C22.0302 18.3937 22.0881 18.1906 22.1928 18.0126C22.2974 17.8346 22.4452 17.6877 22.6216 17.5865C22.7979 17.4852 22.9968 17.433 23.1986 17.4351C23.4004 17.4372 23.5982 17.4934 23.7726 17.5983C23.9469 17.7031 24.0918 17.853 24.193 18.0332C24.2942 18.2133 24.3483 18.4175 24.3498 18.6258V18.6278Z" fill="white"/>
<path d="M28.1569 21.6069C28.1575 21.812 28.1068 22.0138 28.0095 22.1926C27.9122 22.3715 27.7717 22.5213 27.6017 22.6276V23.9702L25.0552 25.4847V27.653C25.0585 27.7383 25.045 27.8234 25.0157 27.9032C24.9863 27.983 24.9416 28.0559 24.8843 28.1174C24.8269 28.1789 24.7582 28.2279 24.6821 28.2613C24.6059 28.2948 24.5241 28.312 24.4413 28.312C24.3586 28.312 24.2768 28.2948 24.2006 28.2613C24.1245 28.2279 24.0557 28.1789 23.9984 28.1174C23.941 28.0559 23.8964 27.983 23.867 27.9032C23.8376 27.8234 23.8242 27.7383 23.8275 27.653V24.7539L26.374 23.2364V22.6236C26.2031 22.5124 26.0632 22.3572 25.9682 22.1733C25.8731 21.9894 25.8261 21.7831 25.8318 21.5747C25.8376 21.3664 25.8958 21.1632 26.0009 20.9851C26.1059 20.8071 26.2541 20.6603 26.4308 20.5593C26.6076 20.4584 26.8067 20.4067 27.0088 20.4093C27.2108 20.4119 27.4086 20.4688 27.5828 20.5743C27.7571 20.6798 27.9016 20.8304 28.0023 21.0111C28.1029 21.1918 28.1562 21.3965 28.1569 21.6049V21.6069Z" fill="white"/>
</g>
<defs>
<linearGradient id="paint0_linear_203_8432" x1="22.5" y1="0.703125" x2="22.5" y2="45.7031" gradientUnits="userSpaceOnUse">
<stop stop-color="#514F57"/>
<stop offset="1" stop-color="#292630"/>
</linearGradient>
<clipPath id="clip0_203_8432">
<rect width="16.65" height="19.58" fill="white" transform="translate(14.1793 13.4062)"/>
</clipPath>
</defs>
</svg>
